<svg id="visual" viewBox="0 0 960 540" width="960" height="540" xmlns="http://www.w3.org/2000/svg" xmlns:xlink="http://www.w3.org/1999/xlink" version="1.1"><path d="M0 151L32 150.7C64 150.3 128 149.7 192 143.8C256 138 320 127 384 121.2C448 115.3 512 114.7 576 116.8C640 119 704 124 768 130.2C832 136.3 896 143.7 928 147.3L960 151L960 0L928 0C896 0 832 0 768 0C704 0 640 0 576 0C512 0 448 0 384 0C320 0 256 0 192 0C128 0 64 0 32 0L0 0Z" fill="#10b981" stroke-linecap="round" stroke-linejoin="miter"></path></svg>