<svg version="1.1" xmlns="http://www.w3.org/2000/svg" viewBox="-307.2 -1075.2 4988.2134765625 1439.4"><desc>Created with Snap</desc><defs></defs><g><rect x="-307.2" y="-1075.2" width="4988.2134765625" height="1439.4" fill="#c4d7f2" style=""></rect><g><g transform="matrix(1,0,0,-1,0,0)"><g transform="matrix(1,0,0,1,0,0)"><path d="M10 671L0 716L382 738Q407 737 424 720Q441 703 441 683Q441 670 431 660Q421 650 401 648L233 657Q258 304 270 15Q261 -15 236 -15Q218 -15 201 -1Q184 14 180 35Q182 89 182 199Q182 240 181 322Q181 404 181 445Q181 564 185 660Q72 668 10 671Z" fill="#292929" style=""></path></g><g transform="matrix(1,0,0,1,441,0)"><g transform="matrix(2.9074,0,0,2.9074,-150.3093,901.2832)"><g transform="matrix(1,0,0,-1,0,0)">
<g>
	<path d="M339.3,125.8h-14.7V96.2c0-3.3-2.7-6-6-6h-24.3V63.6c0-2.2-1.8-4-4-4H101.3c-2.2,0-4,1.8-4,4v24.1H71.8c-3.3,0-6,2.7-6,6
		v113.5v80.5c0,3.3,2.7,6,6,6h25.4v14.7c0,2.2,1.8,4,4,4h189.1c2.2,0,4-1.8,4-4v-41.4c0-2.2-1.8-4-4-4H101.3c-2.2,0-4,1.8-4,4v14.7
		H77.8v-68.5h19.4V224c0,2.2,1.8,4,4,4h41.3c2.2,0,4-1.8,4-4v-10.7h24.6V224c0,2.2,1.8,4,4,4h41.3c2.2,0,4-1.8,4-4v-10.7h24.6V224
		c0,2.2,1.8,4,4,4h41.3c2.2,0,4-1.8,4-4v-10.7h24.3c3.3,0,6-2.7,6-6v-32.1h14.7c2.2,0,4-1.8,4-4v-41.3
		C343.3,127.6,341.5,125.8,339.3,125.8z M105.3,293.8v-12v-10.7h181.1v33.4H105.3V293.8z M105.3,99.7v-12V67.6h181.1v22.7v12v17.6
		H105.3V99.7z M138.5,201.3v12v6.8h-33.3v-6.8v-12v-14.5h33.3V201.3z M142.5,224v-10.7h0L142.5,224z M142.5,201.3L142.5,201.3
		l0-18.5h0V201.3z M212.5,201.3v12v6.8h-33.3v-6.8v-12v-14.5h33.3V201.3z M286.4,201.3v12v6.8h-33.3v-6.8v-1.7v-8.7
		c-0.1,0.1-0.2,0.2-0.2,0.2c0,0,0,0,0-0.1c0.1-0.1,0.1-0.1,0.2-0.2v-1.7v-14.5h33.3V201.3z M312.7,201.3h-18.3v-18.5
		c0-2.2-1.8-4-4-4h-41.3c-2.2,0-4,1.8-4,4v18.5h-24.6v-18.5c0-2.2-1.8-4-4-4h-41.3c-2.2,0-4,1.8-4,4v18.5h-24.6v-18.5
		c0-2.2-1.8-4-4-4h0h-41.3c-2.2,0-4,1.8-4,4v18.5H77.8V99.7h19.4v24.1c0,2.2,1.8,4,4,4h189.1c2.2,0,4-1.8,4-4v-21.6h18.3v23.6H298
		c-2.2,0-4,1.8-4,4v41.3c0,2.2,1.8,4,4,4h14.6V201.3z M335.3,167.1h-10.7h-12H302v-33.3h10.6h12h10.7V167.1z" fill="#292929" style=""></path>
</g>
<desc>Created with Snap</desc><defs></defs></g></g></g><g transform="matrix(1,0,0,1,1307.8136,0)"><path d="M28 57L42 113Q129 66 213 66Q273 66 315 90Q358 115 358 170Q358 219 322 259Q286 300 235 331Q184 362 133 394Q82 427 46 474Q10 522 10 580Q10 651 61 709Q112 768 184 768Q239 768 306 746Q374 724 420 702L408 662Q294 701 216 701Q168 701 134 670Q100 639 100 590Q100 553 119 523Q138 493 168 471Q199 449 236 428Q274 407 311 383Q348 359 378 331Q409 303 428 260Q447 218 447 165Q447 90 399 42Q351 -5 274 -5Q208 -5 133 13Q59 32 28 57Z" fill="#292929" style=""></path></g><g transform="matrix(1,0,0,1,1764.8136,0)"><path d="M10 671L0 716L382 738Q407 737 424 720Q441 703 441 683Q441 670 431 660Q421 650 401 648L233 657Q258 304 270 15Q261 -15 236 -15Q218 -15 201 -1Q184 14 180 35Q182 89 182 199Q182 240 181 322Q181 404 181 445Q181 564 185 660Q72 668 10 671Z" fill="#292929" style=""></path></g><g transform="matrix(1,0,0,1,2205.8136,0)"><path d="M505 -16L521 -57Q476 -56 427 -28Q378 0 335 42Q293 85 259 128Q226 172 202 214L123 223Q125 150 131 -4Q122 -35 96 -35Q78 -35 61 -21Q45 -6 41 15Q44 99 47 342Q51 585 57 718L102 730Q102 698 103 694Q160 732 263 732Q374 732 429 662Q484 593 484 468Q484 422 473 379Q462 337 440 300Q419 263 381 239Q343 215 294 211Q329 138 388 69Q447 0 505 -16ZM112 627L120 315Q175 285 247 285Q316 285 364 337Q412 389 412 464Q412 545 362 610Q312 675 237 675Q176 675 112 627Z" fill="#292929" style=""></path></g><g transform="matrix(1,0,0,1,2736.8136,0)"><path d="M42 335Q42 369 42 386Q42 404 43 440Q45 476 47 497Q50 518 55 551Q60 585 68 605Q76 626 86 652Q97 678 113 694Q129 710 148 724Q167 739 193 746Q219 753 250 753Q312 753 358 728Q404 704 430 667Q456 630 471 576Q487 522 491 473Q496 424 496 365Q496 325 494 293Q493 261 488 220Q484 180 475 149Q467 118 452 86Q437 55 416 34Q396 14 365 1Q334 -12 296 -12Q234 -12 189 3Q145 18 116 45Q88 72 71 116Q55 160 48 212Q42 264 42 335ZM424 327Q424 376 416 429Q409 482 391 543Q374 604 336 642Q298 681 245 681Q205 681 174 627Q144 574 131 507Q118 441 118 382Q118 341 118 319Q119 298 122 258Q125 219 130 196Q136 173 148 143Q160 113 176 96Q193 80 219 67Q246 55 279 54Q352 58 388 136Q424 214 424 327Z" fill="#292929" style=""></path></g><g transform="matrix(1,0,0,1,3272.8136,0)"><path d="M41 28L54 720L108 720L435 99L435 178Q435 480 446 721L503 710Q514 493 521 -5Q500 -14 477 -14Q443 -14 406 6Q345 100 254 281Q164 462 126 529Q127 461 127 281Q128 101 131 8Q122 -23 96 -23Q78 -23 61 -8Q45 7 41 28Z" fill="#292929" style=""></path></g><g transform="matrix(1,0,0,1,3834.8136,0)"><path d="M233 725L309 720Q337 596 424 369Q511 143 539 31Q539 2 529 -13Q519 -27 504 -27Q491 -27 479 -17Q468 -6 464 13Q455 57 406 189Q200 215 147 221Q134 185 115 104Q96 23 85 -8Q70 -26 51 -26Q30 -26 15 -8Q0 11 0 38Q32 155 116 382Q200 609 233 725ZM268 624Q248 503 157 269L269 269Q345 269 396 264Q293 485 268 624Z" fill="#292929" style=""></path></g></g></g></g></svg>